<?xml version="1.0" encoding="UTF-8" standalone="no"?>
<!-- Created with Inkscape (http://www.inkscape.org/) -->

<svg
   width="1.8722042cm"
   height="0.99999988cm"
   viewBox="0 0 18.722041 9.9999987"
   version="1.1"
   id="svg1"
   inkscape:version="1.3.2 (091e20e, 2023-11-25, custom)"
   sodipodi:docname="Logo - Tavvinnhhpo  deev.svg"
   xml:space="preserve"
   xmlns:inkscape="http://www.inkscape.org/namespaces/inkscape"
   xmlns:sodipodi="http://sodipodi.sourceforge.net/DTD/sodipodi-0.dtd"
   xmlns="http://www.w3.org/2000/svg"
   xmlns:svg="http://www.w3.org/2000/svg"><sodipodi:namedview
     id="namedview1"
     pagecolor="#303030"
     bordercolor="#00eeee"
     borderopacity="1"
     inkscape:showpageshadow="0"
     inkscape:pageopacity="0"
     inkscape:pagecheckerboard="0"
     inkscape:deskcolor="#303030"
     inkscape:document-units="mm"
     showgrid="true"
     inkscape:zoom="8"
     inkscape:cx="125.25"
     inkscape:cy="66.9375"
     inkscape:window-width="1920"
     inkscape:window-height="1017"
     inkscape:window-x="-8"
     inkscape:window-y="-8"
     inkscape:window-maximized="1"
     inkscape:current-layer="layer1"><inkscape:grid
       id="grid1"
       units="mm"
       originx="-2.5135467"
       originy="-2.5135415"
       spacingx="0.5"
       spacingy="0.5"
       empcolor="#0099e5"
       empopacity="0.30196078"
       color="#0099e5"
       opacity="0.14901961"
       empspacing="5"
       dotted="false"
       gridanglex="30"
       gridanglez="30"
       visible="true" /><inkscape:page
       x="-4.5737625e-06"
       y="1.6604517e-07"
       width="18.722042"
       height="9.999999"
       id="page3"
       margin="0"
       bleed="0" /></sodipodi:namedview><defs
     id="defs1" /><g
     inkscape:label="Camada 1"
     inkscape:groupmode="layer"
     id="layer1"
     style="display:inline"
     transform="translate(-2.5135425,-2.5135417)"><path
       id="path187"
       style="display:inline;opacity:1;fill:#ffdd59;fill-opacity:1;stroke:none;stroke-width:0.036582;stroke-miterlimit:4.3;stroke-dasharray:none;paint-order:fill markers stroke"
       d="m 4.9759746,9.651792 c 0,0 2.053003,-1.9017697 0.00732,-4.3215176 C 3.6108482,7.0354407 3.8830658,8.5326576 4.9759746,9.651792 Z M 4.2727372,2.5135416 c 0,0 1.7616604,1.6885843 1.847204,1.8169101 1.091222,1.3042066 2.3910204,3.4854622 -0.059958,6.3651343 0.7271806,0.727184 0.7296682,0.727184 0.7296682,0.727184 L 5.656096,12.513541 c 0,0 -1.4490637,-1.381119 -1.7484909,-1.808876 C 2.5079855,9.2304332 1.6680412,6.7704739 3.8406235,4.2779677 3.156222,3.6363343 3.1637834,3.6376329 3.1637834,3.6376329 Z"
       inkscape:export-filename="Programação\Meus Repositórios\tavinhodev\img\Logo - Teste.svg"
       inkscape:export-xdpi="930.29999"
       inkscape:export-ydpi="930.29999" /><g
       id="text189"
       style="font-size:2.94118px;line-height:1;font-family:Furore;-inkscape-font-specification:'Furore, Normal';letter-spacing:0.0101107px;fill:#ffffff;stroke:#ffffff;stroke-width:0.00347378;stroke-miterlimit:4.3;paint-order:fill markers stroke"
       aria-label="Tavinho&#10;Dev."><path
         d="M 9.223167,7.0048637 V 5.3578029 H 9.9378737 V 4.9460377 H 8.0908127 V 5.3578029 H 8.8114018 V 7.0048637 Z M 10.536218,5.9783919 V 5.7725093 l 0.408824,-0.4147064 h 0.617648 v 0.620589 z m 0,1.0264718 V 6.3901571 h 1.026472 v 0.6147066 h 0.408824 V 4.9460377 H 10.73916 l -0.614707,0.620589 v 1.438237 z M 13.272804,6.5930985 H 13.066921 L 12.658097,6.1842745 V 4.9460377 h -0.411765 v 1.4441194 l 0.614707,0.6147066 h 0.617648 L 14.093393,6.3901571 V 4.9460377 h -0.408824 v 1.2382368 z m 1.507172,0.4117652 v -2.058826 h -0.411765 v 2.058826 z m 2.151289,0 V 4.9460377 H 16.522441 V 6.3166276 L 15.495969,4.9460377 h -0.411765 v 2.058826 h 0.411765 v -1.373531 l 1.026472,1.373531 z m 0.715996,0 V 6.1842745 h 1.026472 v 0.8205892 h 0.408824 V 4.9460377 H 18.673733 V 5.7725093 H 17.647261 V 4.9460377 h -0.411765 v 2.058826 z M 19.798552,6.5930985 V 5.3578029 h 1.026472 v 1.2352956 z m 1.232355,0.4117652 0.202941,-0.2029414 V 5.1548615 L 21.030907,4.9460377 h -1.441179 l -0.202941,0.2088238 v 1.6470608 l 0.202941,0.2029414 z"
         id="path2" /><path
         d="M 10.026109,8.5048655 9.4114025,7.8872177 H 8.1790481 v 2.058826 H 9.8231677 L 10.026109,9.7431023 Z M 9.6172851,9.5342785 H 8.5908133 V 8.2989829 H 9.2055199 L 9.6172851,8.7107481 Z M 12.047988,9.9460437 V 9.5342785 h -1.335296 v -0.408824 h 1.232355 V 8.7136893 H 10.712692 V 8.2989829 h 1.335296 V 7.8872177 h -1.747061 v 2.058826 z M 13.319865,9.5342785 H 13.113982 L 12.705158,9.1254545 V 7.8872177 H 12.293393 V 9.3313371 L 12.9081,9.9460437 h 0.617648 L 14.140454,9.3313371 V 7.8872177 H 13.73163 v 1.2382368 z m 1.065995,0.4117652 h 0.411765 V 9.5342785 H 14.38586 Z"
         id="path3" /></g></g></svg>
